<?xml version="1.0" encoding="utf-8"?>
<COLLADA xmlns="http://www.collada.org/2005/11/COLLADASchema" version="1.4.1">
 <asset><up_axis>Z_UP</up_axis></asset>
 <library_cameras><camera id="camera" name="Camera"><optics><technique_common><perspective>
  <yfov>35</yfov><aspect_ratio>1.4</aspect_ratio><znear>0.1</znear><zfar>100</zfar>
 </perspective></technique_common></optics></camera></library_cameras>
 <library_geometries><geometry id="mesh" name="Retro_rocket"><mesh>
  <source id="positions"><float_array id="position-array" count="384">0.25 0 -1.45 0.216506351 0.125 -1.45 0.125 0.216506351 -1.45 1.5308085e-17 0.25 -1.45 -0.125 0.216506351 -1.45 -0.216506351 0.125 -1.45 -0.25 3.061617e-17 -1.45 -0.216506351 -0.125 -1.45 -0.125 -0.216506351 -1.45 -4.5924255e-17 -0.25 -1.45 0.125 -0.216506351 -1.45 0.216506351 -0.125 -1.45 0.25 0 -1.35 0.216506351 0.125 -1.35 0.125 0.216506351 -1.35 1.5308085e-17 0.25 -1.35 -0.125 0.216506351 -1.35 -0.216506351 0.125 -1.35 -0.25 3.061617e-17 -1.35 -0.216506351 -0.125 -1.35 -0.125 -0.216506351 -1.35 -4.5924255e-17 -0.25 -1.35 0.125 -0.216506351 -1.35 0.216506351 -0.125 -1.35 0.42 0 -1.3 0.36373067 0.21 -1.3 0.21 0.36373067 -1.3 2.57175828e-17 0.42 -1.3 -0.21 0.36373067 -1.3 -0.36373067 0.21 -1.3 -0.42 5.14351656e-17 -1.3 -0.36373067 -0.21 -1.3 -0.21 -0.36373067 -1.3 -7.71527483e-17 -0.42 -1.3 0.21 -0.36373067 -1.3 0.36373067 -0.21 -1.3 0.48 0 -1.2 0.415692194 0.24 -1.2 0.24 0.415692194 -1.2 2.93915232e-17 0.48 -1.2 -0.24 0.415692194 -1.2 -0.415692194 0.24 -1.2 -0.48 5.87830464e-17 -1.2 -0.415692194 -0.24 -1.2 -0.24 -0.415692194 -1.2 -8.81745695e-17 -0.48 -1.2 0.24 -0.415692194 -1.2 0.415692194 -0.24 -1.2 0.48 0 0.45 0.415692194 0.24 0.45 0.24 0.415692194 0.45 2.93915232e-17 0.48 0.45 -0.24 0.415692194 0.45 -0.415692194 0.24 0.45 -0.48 5.87830464e-17 0.45 -0.415692194 -0.24 0.45 -0.24 -0.415692194 0.45 -8.81745695e-17 -0.48 0.45 0.24 -0.415692194 0.45 0.415692194 -0.24 0.45 0.46 0 0.55 0.398371686 0.23 0.55 0.23 0.398371686 0.55 2.81668764e-17 0.46 0.55 -0.23 0.398371686 0.55 -0.398371686 0.23 0.55 -0.46 5.63337528e-17 0.55 -0.398371686 -0.23 0.55 -0.23 -0.398371686 0.55 -8.45006291e-17 -0.46 0.55 0.23 -0.398371686 0.55 0.398371686 -0.23 0.55 0.4 0 0.65 0.346410162 0.2 0.65 0.2 0.346410162 0.65 2.4492936e-17 0.4 0.65 -0.2 0.346410162 0.65 -0.346410162 0.2 0.65 -0.4 4.8985872e-17 0.65 -0.346410162 -0.2 0.65 -0.2 -0.346410162 0.65 -7.34788079e-17 -0.4 0.65 0.2 -0.346410162 0.65 0.346410162 -0.2 0.65 0.08 0 1.35 0.0692820323 0.04 1.35 0.04 0.0692820323 1.35 4.8985872e-18 0.08 1.35 -0.04 0.0692820323 1.35 -0.0692820323 0.04 1.35 -0.08 9.79717439e-18 1.35 -0.0692820323 -0.04 1.35 -0.04 -0.0692820323 1.35 -1.46957616e-17 -0.08 1.35 0.04 -0.0692820323 1.35 0.0692820323 -0.04 1.35 0.025 0 1.4 0.0216506351 0.0125 1.4 0.0125 0.0216506351 1.4 1.5308085e-18 0.025 1.4 -0.0125 0.0216506351 1.4 -0.0216506351 0.0125 1.4 -0.025 3.061617e-18 1.4 -0.0216506351 -0.0125 1.4 -0.0125 -0.0216506351 1.4 -4.5924255e-18 -0.025 1.4 0.0125 -0.0216506351 1.4 0.0216506351 -0.0125 1.4 0 0 -1.45 0 0 1.4 0.4 -0.085 -1.25 1.05 -0.085 -1.55 0.43 -0.085 -0.35 0.4 0.085 -1.25 1.05 0.085 -1.55 0.43 0.085 -0.35 -0.126387841 0.388910162 -1.25 -0.451387841 0.951826674 -1.55 -0.141387841 0.414890924 -0.35 -0.273612159 0.303910162 -1.25 -0.598612159 0.866826674 -1.55 -0.288612159 0.329890924 -0.35 -0.273612159 -0.303910162 -1.25 -0.598612159 -0.866826674 -1.55 -0.288612159 -0.329890924 -0.35 -0.126387841 -0.388910162 -1.25 -0.451387841 -0.951826674 -1.55 -0.141387841 -0.414890924 -0.35</float_array>
   <technique_common><accessor source="#position-array" count="128" stride="3">
    <param name="X" type="float"/><param name="Y" type="float"/><param name="Z" type="float"/>
   </accessor></technique_common></source>
  <vertices id="vertices"><input semantic="POSITION" source="#positions"/></vertices>
  <triangles count="240"><input semantic="VERTEX" source="#vertices" offset="0"/><p>0 1 13 0 13 12 1 2 14 1 14 13 2 3 15 2 15 14 3 4 16 3 16 15 4 5 17 4 17 16 5 6 18 5 18 17 6 7 19 6 19 18 7 8 20 7 20 19 8 9 21 8 21 20 9 10 22 9 22 21 10 11 23 10 23 22 11 0 12 11 12 23 12 13 25 12 25 24 13 14 26 13 26 25 14 15 27 14 27 26 15 16 28 15 28 27 16 17 29 16 29 28 17 18 30 17 30 29 18 19 31 18 31 30 19 20 32 19 32 31 20 21 33 20 33 32 21 22 34 21 34 33 22 23 35 22 35 34 23 12 24 23 24 35 24 25 37 24 37 36 25 26 38 25 38 37 26 27 39 26 39 38 27 28 40 27 40 39 28 29 41 28 41 40 29 30 42 29 42 41 30 31 43 30 43 42 31 32 44 31 44 43 32 33 45 32 45 44 33 34 46 33 46 45 34 35 47 34 47 46 35 24 36 35 36 47 36 37 49 36 49 48 37 38 50 37 50 49 38 39 51 38 51 50 39 40 52 39 52 51 40 41 53 40 53 52 41 42 54 41 54 53 42 43 55 42 55 54 43 44 56 43 56 55 44 45 57 44 57 56 45 46 58 45 58 57 46 47 59 46 59 58 47 36 48 47 48 59 48 49 61 48 61 60 49 50 62 49 62 61 50 51 63 50 63 62 51 52 64 51 64 63 52 53 65 52 65 64 53 54 66 53 66 65 54 55 67 54 67 66 55 56 68 55 68 67 56 57 69 56 69 68 57 58 70 57 70 69 58 59 71 58 71 70 59 48 60 59 60 71 60 61 73 60 73 72 61 62 74 61 74 73 62 63 75 62 75 74 63 64 76 63 76 75 64 65 77 64 77 76 65 66 78 65 78 77 66 67 79 66 79 78 67 68 80 67 80 79 68 69 81 68 81 80 69 70 82 69 82 81 70 71 83 70 83 82 71 60 72 71 72 83 72 73 85 72 85 84 73 74 86 73 86 85 74 75 87 74 87 86 75 76 88 75 88 87 76 77 89 76 89 88 77 78 90 77 90 89 78 79 91 78 91 90 79 80 92 79 92 91 80 81 93 80 93 92 81 82 94 81 94 93 82 83 95 82 95 94 83 72 84 83 84 95 84 85 97 84 97 96 85 86 98 85 98 97 86 87 99 86 99 98 87 88 100 87 100 99 88 89 101 88 101 100 89 90 102 89 102 101 90 91 103 90 103 102 91 92 104 91 104 103 92 93 105 92 105 104 93 94 106 93 106 105 94 95 107 94 107 106 95 84 96 95 96 107 108 1 0 109 96 97 108 2 1 109 97 98 108 3 2 109 98 99 108 4 3 109 99 100 108 5 4 109 100 101 108 6 5 109 101 102 108 7 6 109 102 103 108 8 7 109 103 104 108 9 8 109 104 105 108 10 9 109 105 106 108 11 10 109 106 107 108 0 11 109 107 96 110 111 112 113 115 114 110 113 114 110 114 111 111 114 115 111 115 112 112 115 113 112 113 110 116 117 118 119 121 120 116 119 120 116 120 117 117 120 121 117 121 118 118 121 119 118 119 116 122 123 124 125 127 126 122 125 126 122 126 123 123 126 127 123 127 124 124 127 125 124 125 122</p></triangles>
 </mesh></geometry></library_geometries>
 <library_visual_scenes><visual_scene id="Scene" name="Scene">
  <node id="Camera" name="Camera"><instance_camera url="#camera"/></node>
  <node id="Object" name="Retro_rocket"><instance_geometry url="#mesh"/></node>
 </visual_scene></library_visual_scenes><scene><instance_visual_scene url="#Scene"/></scene>
</COLLADA>